<mxfile host="app.diagrams.net" agent="Mozilla/5.0 (Windows NT 10.0; Win64; x64) AppleWebKit/537.36 (KHTML, like Gecko) Chrome/127.0.0.0 Safari/537.36" version="24.7.7">
  <diagram name="Page-1" id="j_Nl8phlF6z0pVhFPBQ9">
    <mxGraphModel grid="1" page="1" gridSize="10" guides="1" tooltips="1" connect="1" arrows="1" fold="1" pageScale="1" pageWidth="850" pageHeight="1100" math="0" shadow="0">
      <root>
        <mxCell id="0" />
        <mxCell id="1" parent="0" />
        <mxCell id="w6qTxpQQMPTgJlbVe05_-3" style="edgeStyle=orthogonalEdgeStyle;rounded=0;orthogonalLoop=1;jettySize=auto;html=1;exitX=0.5;exitY=1;exitDx=0;exitDy=0;entryX=0.5;entryY=0;entryDx=0;entryDy=0;" edge="1" parent="1" source="w6qTxpQQMPTgJlbVe05_-1">
          <mxGeometry relative="1" as="geometry">
            <mxPoint x="410" y="140" as="targetPoint" />
          </mxGeometry>
        </mxCell>
        <mxCell id="w6qTxpQQMPTgJlbVe05_-1" value="Start" style="rounded=0;whiteSpace=wrap;html=1;" vertex="1" parent="1">
          <mxGeometry x="350" y="20" width="120" height="60" as="geometry" />
        </mxCell>
        <mxCell id="w6qTxpQQMPTgJlbVe05_-7" style="edgeStyle=orthogonalEdgeStyle;rounded=0;orthogonalLoop=1;jettySize=auto;html=1;entryX=0.5;entryY=0;entryDx=0;entryDy=0;" edge="1" parent="1" source="w6qTxpQQMPTgJlbVe05_-5">
          <mxGeometry relative="1" as="geometry">
            <mxPoint x="410" y="260" as="targetPoint" />
          </mxGeometry>
        </mxCell>
        <mxCell id="w6qTxpQQMPTgJlbVe05_-5" value="give user 2 random cards and the dealer 1" style="rounded=0;whiteSpace=wrap;html=1;" vertex="1" parent="1">
          <mxGeometry x="350" y="140" width="120" height="60" as="geometry" />
        </mxCell>
        <mxCell id="w6qTxpQQMPTgJlbVe05_-11" value="Stick" style="edgeStyle=orthogonalEdgeStyle;rounded=0;orthogonalLoop=1;jettySize=auto;html=1;exitX=0;exitY=0.5;exitDx=0;exitDy=0;entryX=0.5;entryY=0;entryDx=0;entryDy=0;" edge="1" parent="1" source="w6qTxpQQMPTgJlbVe05_-8">
          <mxGeometry relative="1" as="geometry">
            <mxPoint x="310" y="370" as="targetPoint" />
          </mxGeometry>
        </mxCell>
        <mxCell id="w6qTxpQQMPTgJlbVe05_-13" value="Twist" style="edgeStyle=orthogonalEdgeStyle;rounded=0;orthogonalLoop=1;jettySize=auto;html=1;exitX=1;exitY=0.5;exitDx=0;exitDy=0;" edge="1" parent="1" source="w6qTxpQQMPTgJlbVe05_-8">
          <mxGeometry relative="1" as="geometry">
            <mxPoint x="510" y="370" as="targetPoint" />
          </mxGeometry>
        </mxCell>
        <mxCell id="w6qTxpQQMPTgJlbVe05_-8" value="Ask user to stick or twist" style="rhombus;whiteSpace=wrap;html=1;" vertex="1" parent="1">
          <mxGeometry x="370" y="260" width="80" height="80" as="geometry" />
        </mxCell>
        <mxCell id="w6qTxpQQMPTgJlbVe05_-18" value="yes" style="edgeStyle=orthogonalEdgeStyle;rounded=0;orthogonalLoop=1;jettySize=auto;html=1;exitX=0.5;exitY=1;exitDx=0;exitDy=0;entryX=0.5;entryY=0;entryDx=0;entryDy=0;" edge="1" parent="1" source="w6qTxpQQMPTgJlbVe05_-14" target="w6qTxpQQMPTgJlbVe05_-16">
          <mxGeometry relative="1" as="geometry" />
        </mxCell>
        <mxCell id="w6qTxpQQMPTgJlbVe05_-21" value="no" style="edgeStyle=orthogonalEdgeStyle;rounded=0;orthogonalLoop=1;jettySize=auto;html=1;" edge="1" parent="1" source="w6qTxpQQMPTgJlbVe05_-14" target="w6qTxpQQMPTgJlbVe05_-8">
          <mxGeometry relative="1" as="geometry" />
        </mxCell>
        <mxCell id="w6qTxpQQMPTgJlbVe05_-14" value="Is user bust?" style="rhombus;whiteSpace=wrap;html=1;" vertex="1" parent="1">
          <mxGeometry x="470" y="370" width="80" height="80" as="geometry" />
        </mxCell>
        <mxCell id="w6qTxpQQMPTgJlbVe05_-40" style="edgeStyle=orthogonalEdgeStyle;rounded=0;orthogonalLoop=1;jettySize=auto;html=1;" edge="1" parent="1" source="w6qTxpQQMPTgJlbVe05_-16">
          <mxGeometry relative="1" as="geometry">
            <mxPoint x="470" y="50" as="targetPoint" />
            <Array as="points">
              <mxPoint x="630" y="520" />
              <mxPoint x="630" y="50" />
            </Array>
          </mxGeometry>
        </mxCell>
        <mxCell id="w6qTxpQQMPTgJlbVe05_-16" value="Game Over" style="rounded=0;whiteSpace=wrap;html=1;" vertex="1" parent="1">
          <mxGeometry x="450" y="490" width="120" height="60" as="geometry" />
        </mxCell>
        <mxCell id="w6qTxpQQMPTgJlbVe05_-27" style="edgeStyle=orthogonalEdgeStyle;rounded=0;orthogonalLoop=1;jettySize=auto;html=1;entryX=0.5;entryY=0;entryDx=0;entryDy=0;" edge="1" parent="1" source="w6qTxpQQMPTgJlbVe05_-25" target="w6qTxpQQMPTgJlbVe05_-26">
          <mxGeometry relative="1" as="geometry" />
        </mxCell>
        <mxCell id="w6qTxpQQMPTgJlbVe05_-25" value="give dealer another card" style="rounded=0;whiteSpace=wrap;html=1;" vertex="1" parent="1">
          <mxGeometry x="250" y="370" width="120" height="50" as="geometry" />
        </mxCell>
        <mxCell id="w6qTxpQQMPTgJlbVe05_-29" value="Yes" style="edgeStyle=orthogonalEdgeStyle;rounded=0;orthogonalLoop=1;jettySize=auto;html=1;exitX=0;exitY=0.5;exitDx=0;exitDy=0;entryX=0.5;entryY=0;entryDx=0;entryDy=0;" edge="1" parent="1" source="w6qTxpQQMPTgJlbVe05_-26" target="w6qTxpQQMPTgJlbVe05_-28">
          <mxGeometry relative="1" as="geometry" />
        </mxCell>
        <mxCell id="w6qTxpQQMPTgJlbVe05_-31" value="NO" style="edgeStyle=orthogonalEdgeStyle;rounded=0;orthogonalLoop=1;jettySize=auto;html=1;exitX=1;exitY=0.5;exitDx=0;exitDy=0;" edge="1" parent="1" source="w6qTxpQQMPTgJlbVe05_-26">
          <mxGeometry relative="1" as="geometry">
            <mxPoint x="400" y="580" as="targetPoint" />
            <Array as="points">
              <mxPoint x="400" y="510" />
            </Array>
          </mxGeometry>
        </mxCell>
        <mxCell id="w6qTxpQQMPTgJlbVe05_-26" value="Is dealer below 17" style="rhombus;whiteSpace=wrap;html=1;" vertex="1" parent="1">
          <mxGeometry x="270" y="470" width="80" height="80" as="geometry" />
        </mxCell>
        <mxCell id="w6qTxpQQMPTgJlbVe05_-38" style="edgeStyle=orthogonalEdgeStyle;rounded=0;orthogonalLoop=1;jettySize=auto;html=1;exitX=1;exitY=0.5;exitDx=0;exitDy=0;entryX=0.5;entryY=1;entryDx=0;entryDy=0;" edge="1" parent="1" source="w6qTxpQQMPTgJlbVe05_-28" target="w6qTxpQQMPTgJlbVe05_-26">
          <mxGeometry relative="1" as="geometry" />
        </mxCell>
        <mxCell id="w6qTxpQQMPTgJlbVe05_-28" value="Give dealer another card" style="rounded=0;whiteSpace=wrap;html=1;" vertex="1" parent="1">
          <mxGeometry x="170" y="580" width="120" height="60" as="geometry" />
        </mxCell>
        <mxCell id="w6qTxpQQMPTgJlbVe05_-35" value="Yes" style="edgeStyle=orthogonalEdgeStyle;rounded=0;orthogonalLoop=1;jettySize=auto;html=1;exitX=0.5;exitY=1;exitDx=0;exitDy=0;" edge="1" parent="1" source="w6qTxpQQMPTgJlbVe05_-32" target="w6qTxpQQMPTgJlbVe05_-34">
          <mxGeometry relative="1" as="geometry" />
        </mxCell>
        <mxCell id="w6qTxpQQMPTgJlbVe05_-36" value="No" style="edgeStyle=orthogonalEdgeStyle;rounded=0;orthogonalLoop=1;jettySize=auto;html=1;" edge="1" parent="1" source="w6qTxpQQMPTgJlbVe05_-32">
          <mxGeometry relative="1" as="geometry">
            <mxPoint x="560" y="710" as="targetPoint" />
          </mxGeometry>
        </mxCell>
        <mxCell id="w6qTxpQQMPTgJlbVe05_-32" value="is user &amp;gt; dealer" style="rhombus;whiteSpace=wrap;html=1;" vertex="1" parent="1">
          <mxGeometry x="360" y="580" width="80" height="80" as="geometry" />
        </mxCell>
        <mxCell id="w6qTxpQQMPTgJlbVe05_-41" style="edgeStyle=orthogonalEdgeStyle;rounded=0;orthogonalLoop=1;jettySize=auto;html=1;entryX=1;entryY=0.5;entryDx=0;entryDy=0;" edge="1" parent="1" source="w6qTxpQQMPTgJlbVe05_-34" target="w6qTxpQQMPTgJlbVe05_-1">
          <mxGeometry relative="1" as="geometry">
            <Array as="points">
              <mxPoint x="400" y="860" />
              <mxPoint x="710" y="860" />
              <mxPoint x="710" y="50" />
            </Array>
          </mxGeometry>
        </mxCell>
        <mxCell id="w6qTxpQQMPTgJlbVe05_-34" value="Winner" style="rounded=0;whiteSpace=wrap;html=1;" vertex="1" parent="1">
          <mxGeometry x="340" y="710" width="120" height="60" as="geometry" />
        </mxCell>
        <mxCell id="w6qTxpQQMPTgJlbVe05_-39" style="edgeStyle=orthogonalEdgeStyle;rounded=0;orthogonalLoop=1;jettySize=auto;html=1;entryX=1;entryY=0.5;entryDx=0;entryDy=0;" edge="1" parent="1" source="w6qTxpQQMPTgJlbVe05_-37" target="w6qTxpQQMPTgJlbVe05_-1">
          <mxGeometry relative="1" as="geometry">
            <Array as="points">
              <mxPoint x="670" y="740" />
              <mxPoint x="670" y="50" />
            </Array>
          </mxGeometry>
        </mxCell>
        <mxCell id="w6qTxpQQMPTgJlbVe05_-37" value="Game Over" style="rounded=0;whiteSpace=wrap;html=1;" vertex="1" parent="1">
          <mxGeometry x="500" y="710" width="120" height="60" as="geometry" />
        </mxCell>
      </root>
    </mxGraphModel>
  </diagram>
</mxfile>
